<svg width="29" height="23" viewBox="0 0 29 23" fill="none" xmlns="http://www.w3.org/2000/svg">
<path d="M0 22.4999V8.30764C0 7.54995 0.262498 6.90861 0.787493 6.38362C1.31249 5.85862 1.95383 5.59612 2.71152 5.59612H7.12497V2.71152C7.12497 1.95383 7.38747 1.31249 7.91247 0.787493C8.43746 0.262498 9.0788 0 9.83649 0H18.6634C19.4211 0 20.0624 0.262498 20.5874 0.787493C21.1124 1.31249 21.3749 1.95383 21.3749 2.71152V5.59612H25.7884C26.5461 5.59612 27.1874 5.85862 27.7124 6.38362C28.2374 6.90861 28.4999 7.54995 28.4999 8.30764V22.4999H0ZM7.78837 15.173V16.673H5.53843V15.173H2.24995V20.2499H26.2499V15.173H22.9615V16.673H20.7115V15.173H7.78837ZM2.24995 8.30764V12.923H5.53843V11.423H7.78837V12.923H20.7115V11.423H22.9615V12.923H26.2499V8.30764C26.2499 8.19225 26.2019 8.08647 26.1057 7.99031C26.0095 7.89415 25.9038 7.84607 25.7884 7.84607H2.71152C2.59612 7.84607 2.49035 7.89415 2.39419 7.99031C2.29803 8.08647 2.24995 8.19225 2.24995 8.30764ZM9.37492 5.59612H19.125V2.71152C19.125 2.59612 19.0769 2.49035 18.9807 2.39419C18.8846 2.29803 18.7788 2.24995 18.6634 2.24995H9.83649C9.7211 2.24995 9.61532 2.29803 9.51916 2.39419C9.423 2.49035 9.37492 2.59612 9.37492 2.71152V5.59612Z" fill="#C4F410"/>
</svg>
